<svg id="mermaidChart19" width="100%" xmlns="http://www.w3.org/2000/svg" height="100%" style="max-width:850px;" viewBox="-50 -10 850 561"><style type="text/css" title="mermaid-svg-internal-css">/*  */
.actor { stroke: #ccccff; fill: #e2ecff; }
text.actor { fill: #000000; stroke: none; font-size: 12px; }
.actor-line { stroke: #808080; }
.messageLine0 { stroke-width: 1.5px; stroke: #000000; }
arrowhead { fill: #000000; }
.messageText { fill: #000000; stroke: none; font-size: 12px; }
.labelBox { stroke: #ccccff; fill: #ececff; }
.labelText { fill: #000000; stroke: none; }
.loopText { fill: #000000; stroke: none; }
.loopLine { stroke-width: 2px; stroke: #ccccff; }
.actor { stroke: #ccccff; fill: #ececff; }
text.actor { fill: #000000; stroke: none; }
.actor-line { stroke: #808080; }
.messageLine0 { stroke-width: 1.5px; stroke: #333333; }
arrowhead { fill: #333333; }
crosshead path { fill: #333333 !important; stroke: #333333 !important; }
.messageText { fill: #333333; stroke: none; }
.labelBox { stroke: #ccccff; fill: #ececff; }
.labelText { fill: #000000; stroke: none; }
.loopText { fill: #000000; stroke: none; }
.loopLine { stroke-width: 2px; stroke: #ccccff; }
text { font-family: 'trebuchet ms', verdana, arial; font-size: 14px; }
/*  */
</style><g></g><g><line id="actor92" x1="75" y1="5" x2="75" y2="550" class="actor-line" stroke-width="0.5px" stroke="#999"></line><rect x="0" y="0" fill="#eaeaea" stroke="#666" width="150" height="65" rx="3" ry="3" class="actor"></rect><text x="75" y="37.5" class="actor" style="text-anchor: middle;">Supervisor</text></g><g><line id="actor93" x1="275" y1="5" x2="275" y2="550" class="actor-line" stroke-width="0.5px" stroke="#999"></line><rect x="200" y="0" fill="#eaeaea" stroke="#666" width="150" height="65" rx="3" ry="3" class="actor"></rect><text x="275" y="37.5" class="actor" style="text-anchor: middle;">SiteCrawler</text></g><g><line id="actor94" x1="475" y1="5" x2="475" y2="550" class="actor-line" stroke-width="0.5px" stroke="#999"></line><rect x="400" y="0" fill="#eaeaea" stroke="#666" width="150" height="65" rx="3" ry="3" class="actor"></rect><text x="475" y="37.5" class="actor" style="text-anchor: middle;">Scraper</text></g><g><line id="actor95" x1="675" y1="5" x2="675" y2="550" class="actor-line" stroke-width="0.5px" stroke="#999"></line><rect x="600" y="0" fill="#eaeaea" stroke="#666" width="150" height="65" rx="3" ry="3" class="actor"></rect><text x="675" y="37.5" class="actor" style="text-anchor: middle;">Indexer</text></g><defs><marker id="arrowhead" refX="5" refY="2" markerWidth="6" markerHeight="4" orient="auto"><path d="M 0,0 V 4 L6,2 Z"></path></marker></defs><defs><marker id="crosshead" markerWidth="15" markerHeight="8" orient="auto" refX="16" refY="4"><path fill="black" stroke="#000000" stroke-width="1px" d="M 9,2 V 6 L16,4 Z" style="stroke-dasharray: 0px, 0px;"></path><path fill="none" stroke="#000000" stroke-width="1px" d="M 0,1 L 6,7 M 6,1 L 0,7" style="stroke-dasharray: 0px, 0px;"></path></marker></defs><g><text x="175" y="93" class="messageText" style="text-anchor: middle;">Scrap</text><line x1="75" y1="100" x2="275" y2="100" class="messageLine0" stroke-width="2" stroke="black" marker-end="url(#crosshead)" style="fill: none;"></line></g><g><text x="275" y="153" class="messageText" style="text-anchor: middle;">Process next url</text><path d="M 275,160 C 335,150 335,190 275,180" class="messageLine0" stroke-width="2" stroke="black" marker-end="url(#arrowhead)" style="fill: none;"></path></g><g><line x1="165" y1="110" x2="385" y2="110" stroke-width="2" stroke="#526e52" class="loopLine"></line><line x1="385" y1="110" x2="385" y2="200" stroke-width="2" stroke="#526e52" class="loopLine"></line><line x1="165" y1="200" x2="385" y2="200" stroke-width="2" stroke="#526e52" class="loopLine"></line><line x1="165" y1="110" x2="165" y2="200" stroke-width="2" stroke="#526e52" class="loopLine"></line><rect x="165" y="110" fill="#526e52" stroke="none" width="50" height="20" rx="0" ry="0" class="labelBox"></rect><text x="172.5" y="125" fill="white" class="labelText"><tspan x="172.5">loop</tspan></text><text x="275" y="125" fill="black" class="loopText" style="text-anchor: middle;"><tspan x="275">[ Every second ]</tspan></text></g><g><text x="375" y="228" class="messageText" style="text-anchor: middle;">Scrap</text><line x1="275" y1="235" x2="475" y2="235" class="messageLine0" stroke-width="2" stroke="black" marker-end="url(#crosshead)" style="fill: none;"></line></g><g><text x="375" y="263" class="messageText" style="text-anchor: middle;">ScrapFinished</text><line x1="475" y1="270" x2="275" y2="270" class="messageLine0" stroke-width="2" stroke="black" marker-end="url(#crosshead)" style="fill: none;"></line></g><g><text x="575" y="298" class="messageText" style="text-anchor: middle;">Index</text><line x1="475" y1="305" x2="675" y2="305" class="messageLine0" stroke-width="2" stroke="black" marker-end="url(#crosshead)" style="fill: none;"></line></g><g><text x="175" y="358" class="messageText" style="text-anchor: middle;">ScrapFinished</text><line x1="275" y1="365" x2="75" y2="365" class="messageLine0" stroke-width="2" stroke="black" marker-end="url(#crosshead)" style="fill: none;"></line></g><g><text x="175" y="413" class="messageText" style="text-anchor: middle;">ScrapFailure</text><line x1="275" y1="420" x2="75" y2="420" class="messageLine0" stroke-width="2" stroke="black" marker-end="url(#crosshead)" style="fill: none;"></line></g><g><line x1="65" y1="315" x2="285" y2="315" stroke-width="2" stroke="#526e52" class="loopLine"></line><line x1="285" y1="315" x2="285" y2="430" stroke-width="2" stroke="#526e52" class="loopLine"></line><line x1="65" y1="430" x2="285" y2="430" stroke-width="2" stroke="#526e52" class="loopLine"></line><line x1="65" y1="315" x2="65" y2="430" stroke-width="2" stroke="#526e52" class="loopLine"></line><line x1="65" y1="375" x2="285" y2="375" stroke-width="2" stroke="#526e52" class="loopLine"></line><rect x="65" y="315" fill="#526e52" stroke="none" width="50" height="20" rx="0" ry="0" class="labelBox"></rect><text x="72.5" y="330" fill="white" class="labelText"><tspan x="72.5">alt</tspan></text><text x="175" y="330" fill="black" class="loopText" style="text-anchor: middle;"><tspan x="175">[ Scraping succesful ]</tspan></text><text x="175" y="390" fill="black" class="loopText" style="text-anchor: middle;"><tspan x="175">[ Scraping timeout ]</tspan></text></g><g><text x="375" y="458" class="messageText" style="text-anchor: middle;">IndexFinished</text><line x1="675" y1="465" x2="75" y2="465" class="messageLine0" stroke-width="2" stroke="black" marker-end="url(#crosshead)" style="fill: none;"></line></g><g><rect x="0" y="485" fill="#eaeaea" stroke="#666" width="150" height="65" rx="3" ry="3" class="actor"></rect><text x="75" y="522.5" class="actor" style="text-anchor: middle;">Supervisor</text></g><g><rect x="200" y="485" fill="#eaeaea" stroke="#666" width="150" height="65" rx="3" ry="3" class="actor"></rect><text x="275" y="522.5" class="actor" style="text-anchor: middle;">SiteCrawler</text></g><g><rect x="400" y="485" fill="#eaeaea" stroke="#666" width="150" height="65" rx="3" ry="3" class="actor"></rect><text x="475" y="522.5" class="actor" style="text-anchor: middle;">Scraper</text></g><g><rect x="600" y="485" fill="#eaeaea" stroke="#666" width="150" height="65" rx="3" ry="3" class="actor"></rect><text x="675" y="522.5" class="actor" style="text-anchor: middle;">Indexer</text></g></svg>
